<?xml version="1.0" encoding="utf-8"?>
<!-- Generator: Adobe Illustrator 19.1.0, SVG Export Plug-In . SVG Version: 6.00 Build 0)  -->
<svg version="1.1" xmlns="http://www.w3.org/2000/svg" xmlns:xlink="http://www.w3.org/1999/xlink" x="0px" y="0px"
	 viewBox="0 0 382 100" style="enable-background:new 0 0 382 100;" xml:space="preserve">
<style type="text/css">
	.st0{fill:#FFF;}
	.st1{fill:url(#SVGID_1_);}
	.st2{fill:#FFF;}
	.st3{fill:url(#SVGID_2_);}
	.st4{fill:url(#SVGID_3_);}
	.st5{fill:url(#SVGID_4_);}
	.st6{fill:url(#SVGID_5_);}
	.st7{fill:url(#SVGID_6_);}
	.st8{fill:url(#SVGID_7_);}
	.st9{fill:url(#SVGID_8_);}
	.st10{fill:url(#SVGID_9_);}
	.st11{fill:url(#SVGID_10_);}
	.st12{fill:url(#SVGID_11_);}
	.st13{fill:url(#SVGID_12_);}
	.st14{fill:url(#SVGID_13_);}
	.st15{fill:url(#SVGID_14_);}
	.st16{fill:url(#SVGID_15_);}
	.st17{fill:url(#SVGID_16_);}
	.st18{fill:url(#SVGID_17_);}
	.st19{fill:url(#SVGID_18_);}
	.st20{fill:url(#SVGID_19_);}
	.st21{fill:url(#SVGID_20_);}
	.st22{fill:url(#SVGID_21_);}
	.st23{fill:url(#SVGID_22_);}
	.st24{fill:url(#SVGID_23_);}
	.st25{fill:url(#SVGID_24_);}
	.st26{fill:url(#SVGID_25_);}
	.st27{fill:url(#SVGID_26_);}
	.st28{fill:url(#SVGID_27_);}
	.st29{fill:url(#SVGID_28_);}
	.st30{fill:url(#SVGID_29_);}
	.st31{fill:url(#SVGID_30_);}
	.st32{fill:url(#SVGID_31_);}
	.st33{fill:url(#SVGID_32_);}
	.st34{fill:url(#SVGID_33_);}
	.st35{fill:url(#SVGID_34_);}
	.st36{fill:url(#SVGID_35_);}
	.st37{fill:url(#SVGID_36_);}
	.st38{fill:url(#SVGID_37_);}
	.st39{fill:url(#SVGID_38_);}
	.st40{fill:url(#SVGID_39_);}
	.st41{fill:url(#SVGID_40_);}
	.st42{fill:url(#SVGID_41_);}
	.st43{fill:url(#SVGID_42_);}
	.st44{fill:url(#SVGID_43_);}
	.st45{fill:url(#SVGID_44_);}
	.st46{clip-path:url(#SVGID_46_);}
	.st47{fill:url(#SVGID_47_);}
	.st48{fill:url(#SVGID_48_);}
	.st49{fill:url(#SVGID_49_);}
	.st50{fill:url(#SVGID_50_);}
	.st51{fill:url(#SVGID_51_);}
	.st52{fill:url(#SVGID_52_);}
	.st53{fill:url(#SVGID_53_);}
	.st54{fill:url(#SVGID_54_);}
	.st55{fill:url(#SVGID_55_);}
	.st56{fill:url(#SVGID_56_);}
	.st57{fill:url(#SVGID_57_);}
	.st58{fill:url(#SVGID_58_);}
	.st59{fill:url(#SVGID_59_);}
	.st60{fill:url(#SVGID_60_);}
	.st61{fill:url(#SVGID_61_);}
	.st62{fill:url(#SVGID_62_);}
	.st63{fill:url(#SVGID_63_);}
	.st64{fill:url(#SVGID_64_);}
	.st65{fill:url(#SVGID_65_);}
	.st66{fill:url(#SVGID_66_);}
	.st67{fill:url(#SVGID_67_);}
	.st68{fill:url(#SVGID_68_);}
	.st69{fill:url(#SVGID_69_);}
	.st70{fill:url(#SVGID_70_);}
	.st71{fill:url(#SVGID_71_);}
	.st72{fill:url(#SVGID_72_);}
	.st73{fill:url(#SVGID_73_);}
	.st74{fill:url(#SVGID_74_);}
	.st75{fill:url(#SVGID_75_);}
	.st76{fill:url(#SVGID_76_);}
	.st77{fill:url(#SVGID_77_);}
	.st78{fill:url(#SVGID_78_);}
	.st79{fill:url(#SVGID_79_);}
	.st80{fill:url(#SVGID_80_);}
	.st81{fill:url(#SVGID_81_);}
	.st82{fill:url(#SVGID_82_);}
	.st83{fill:url(#SVGID_83_);}
	.st84{fill:url(#SVGID_84_);}
	.st85{fill:url(#SVGID_85_);}
	.st86{fill:url(#SVGID_86_);}
	.st87{fill:url(#SVGID_87_);}
	.st88{fill:url(#SVGID_88_);}
	.st89{fill:url(#SVGID_89_);}
	.st90{fill:url(#SVGID_90_);}
	.st91{fill:url(#SVGID_91_);}
	.st92{fill:url(#SVGID_92_);}
	.st93{fill:url(#SVGID_93_);}
	.st94{fill:url(#SVGID_94_);}
	.st95{fill:url(#SVGID_95_);}
	.st96{fill:url(#SVGID_96_);}
	.st97{fill:url(#SVGID_97_);}
	.st98{fill:url(#SVGID_98_);}
	.st99{fill:url(#SVGID_99_);}
	.st100{fill:url(#SVGID_100_);}
	.st101{fill:url(#SVGID_101_);}
	.st102{fill:url(#SVGID_102_);}
	.st103{fill:url(#SVGID_103_);}
	.st104{fill:url(#SVGID_104_);}
	.st105{fill:url(#SVGID_105_);}
	.st106{fill:url(#SVGID_106_);}
	.st107{fill:url(#SVGID_107_);}
	.st108{fill:url(#SVGID_108_);}
	.st109{fill:url(#SVGID_109_);}
	.st110{fill:url(#SVGID_110_);}
	.st111{fill:url(#SVGID_111_);}
	.st112{fill:url(#SVGID_112_);}
	.st113{fill:url(#SVGID_113_);}
	.st114{fill:url(#SVGID_114_);}
	.st115{fill:url(#SVGID_115_);}
	.st116{fill:url(#SVGID_116_);}
	.st117{fill:url(#SVGID_117_);}
	.st118{fill:url(#SVGID_118_);}
	.st119{fill:url(#SVGID_119_);}
	.st120{fill:url(#SVGID_120_);}
	.st121{fill:url(#SVGID_121_);}
	.st122{fill:url(#SVGID_122_);}
	.st123{fill:url(#SVGID_123_);}
	.st124{fill:url(#SVGID_124_);}
	.st125{fill:url(#SVGID_125_);}
	.st126{fill:url(#SVGID_126_);}
	.st127{fill:url(#SVGID_127_);}
	.st128{fill:url(#SVGID_128_);}
	.st129{fill:url(#SVGID_129_);}
	.st130{fill:url(#SVGID_130_);}
	.st131{fill:url(#SVGID_131_);}
	.st132{fill:url(#SVGID_132_);}
	.st133{fill:url(#SVGID_133_);}
	.st134{fill:url(#SVGID_134_);}
	.st135{fill:url(#SVGID_135_);}
	.st136{fill:url(#SVGID_136_);}
	.st137{fill:url(#SVGID_137_);}
	.st138{fill:url(#SVGID_138_);}
	.st139{fill:url(#SVGID_139_);}
	.st140{fill:url(#SVGID_140_);}
	.st141{fill:url(#SVGID_141_);}
	.st142{fill:url(#SVGID_142_);}
	.st143{fill:url(#SVGID_143_);}
	.st144{fill:url(#SVGID_144_);}
	.st145{fill:url(#SVGID_145_);}
	.st146{fill:url(#SVGID_146_);}
	.st147{fill:url(#SVGID_147_);}
	.st148{fill:url(#SVGID_148_);}
	.st149{fill:url(#SVGID_149_);}
	.st150{fill:url(#SVGID_150_);}
	.st151{fill:url(#SVGID_151_);}
	.st152{fill:url(#SVGID_152_);}
	.st153{fill:url(#SVGID_153_);}
	.st154{fill:url(#SVGID_154_);}
	.st155{fill:url(#SVGID_155_);}
	.st156{fill:url(#SVGID_156_);}
	.st157{fill:url(#SVGID_157_);}
	.st158{fill:url(#SVGID_158_);}
	.st159{fill:url(#SVGID_159_);}
	.st160{fill:url(#SVGID_160_);}
	.st161{fill:url(#SVGID_161_);}
	.st162{fill:url(#SVGID_162_);}
	.st163{fill:url(#SVGID_163_);}
	.st164{fill:url(#SVGID_164_);}
	.st165{fill:url(#SVGID_165_);}
	.st166{fill:url(#SVGID_166_);}
	.st167{fill:url(#SVGID_167_);}
	.st168{fill:url(#SVGID_168_);}
	.st169{fill:url(#SVGID_169_);}
	.st170{fill:url(#SVGID_170_);}
	.st171{fill:url(#SVGID_171_);}
	.st172{fill:#003346;}
	.st173{fill:url(#SVGID_172_);}
	.st174{fill:url(#SVGID_173_);}
	.st175{fill:url(#SVGID_174_);}
	.st176{fill:url(#SVGID_175_);}
	.st177{fill:url(#SVGID_176_);}
	.st178{clip-path:url(#SVGID_178_);}
	.st179{fill:url(#SVGID_179_);}
	.st180{fill:url(#SVGID_180_);}
	.st181{fill:url(#SVGID_181_);}
	.st182{fill:url(#SVGID_182_);}
	.st183{fill:url(#SVGID_183_);}
	.st184{fill:url(#SVGID_184_);}
	.st185{fill:url(#SVGID_185_);}
	.st186{fill:url(#SVGID_186_);}
	.st187{fill:url(#SVGID_187_);}
	.st188{fill:url(#SVGID_188_);}
	.st189{fill:url(#SVGID_189_);}
	.st190{fill:url(#SVGID_190_);}
	.st191{fill:url(#SVGID_191_);}
	.st192{fill:url(#SVGID_192_);}
	.st193{fill:url(#SVGID_193_);}
	.st194{fill:url(#SVGID_194_);}
	.st195{fill:url(#SVGID_195_);}
	.st196{fill:url(#SVGID_196_);}
	.st197{fill:url(#SVGID_197_);}
	.st198{fill:url(#SVGID_198_);}
	.st199{fill:url(#SVGID_199_);}
	.st200{fill:url(#SVGID_200_);}
	.st201{fill:url(#SVGID_201_);}
	.st202{fill:url(#SVGID_202_);}
	.st203{fill:url(#SVGID_203_);}
	.st204{fill:url(#SVGID_204_);}
	.st205{fill:url(#SVGID_205_);}
	.st206{fill:url(#SVGID_206_);}
	.st207{fill:url(#SVGID_207_);}
	.st208{fill:url(#SVGID_208_);}
	.st209{fill:url(#SVGID_209_);}
	.st210{fill:url(#SVGID_210_);}
	.st211{fill:url(#SVGID_211_);}
	.st212{fill:url(#SVGID_212_);}
	.st213{fill:url(#SVGID_213_);}
	.st214{fill:url(#SVGID_214_);}
	.st215{fill:url(#SVGID_215_);}
	.st216{fill:url(#SVGID_216_);}
	.st217{fill:url(#SVGID_217_);}
	.st218{fill:#FFFFFF;}
	.st219{clip-path:url(#SVGID_219_);}
	.st220{fill:url(#SVGID_220_);}
	.st221{fill:url(#SVGID_221_);}
	.st222{fill:url(#SVGID_222_);}
	.st223{fill:url(#SVGID_223_);}
	.st224{fill:url(#SVGID_224_);}
	.st225{fill:url(#SVGID_225_);}
	.st226{fill:url(#SVGID_226_);}
	.st227{fill:url(#SVGID_227_);}
	.st228{fill:url(#SVGID_228_);}
	.st229{fill:url(#SVGID_229_);}
	.st230{fill:url(#SVGID_230_);}
	.st231{fill:url(#SVGID_231_);}
	.st232{fill:url(#SVGID_232_);}
	.st233{fill:url(#SVGID_233_);}
	.st234{fill:url(#SVGID_234_);}
	.st235{fill:url(#SVGID_235_);}
	.st236{fill:url(#SVGID_236_);}
	.st237{fill:url(#SVGID_237_);}
	.st238{fill:url(#SVGID_238_);}
	.st239{fill:url(#SVGID_239_);}
	.st240{fill:url(#SVGID_240_);}
	.st241{fill:url(#SVGID_241_);}
	.st242{fill:url(#SVGID_242_);}
	.st243{fill:url(#SVGID_243_);}
	.st244{fill:url(#SVGID_244_);}
	.st245{fill:url(#SVGID_245_);}
	.st246{fill:url(#SVGID_246_);}
	.st247{fill:url(#SVGID_247_);}
	.st248{fill:url(#SVGID_248_);}
	.st249{fill:url(#SVGID_249_);}
	.st250{fill:url(#SVGID_250_);}
	.st251{fill:url(#SVGID_251_);}
	.st252{fill:url(#SVGID_252_);}
	.st253{fill:url(#SVGID_253_);}
	.st254{fill:url(#SVGID_254_);}
	.st255{fill:url(#SVGID_255_);}
	.st256{fill:url(#SVGID_256_);}
	.st257{fill:url(#SVGID_257_);}
	.st258{fill:url(#SVGID_258_);}
	.st259{clip-path:url(#SVGID_260_);}
	.st260{fill:url(#SVGID_261_);}
	.st261{fill:url(#SVGID_262_);}
	.st262{fill:url(#SVGID_263_);}
	.st263{fill:url(#SVGID_264_);}
	.st264{fill:url(#SVGID_265_);}
	.st265{fill:url(#SVGID_266_);}
	.st266{fill:url(#SVGID_267_);}
	.st267{fill:url(#SVGID_268_);}
	.st268{fill:url(#SVGID_269_);}
	.st269{fill:url(#SVGID_270_);}
	.st270{fill:url(#SVGID_271_);}
	.st271{fill:url(#SVGID_272_);}
	.st272{fill:url(#SVGID_273_);}
	.st273{fill:url(#SVGID_274_);}
	.st274{fill:url(#SVGID_275_);}
	.st275{fill:url(#SVGID_276_);}
	.st276{fill:url(#SVGID_277_);}
	.st277{fill:url(#SVGID_278_);}
	.st278{fill:url(#SVGID_279_);}
	.st279{fill:url(#SVGID_280_);}
	.st280{fill:url(#SVGID_281_);}
	.st281{fill:url(#SVGID_282_);}
	.st282{fill:url(#SVGID_283_);}
	.st283{fill:url(#SVGID_284_);}
	.st284{fill:url(#SVGID_285_);}
	.st285{fill:url(#SVGID_286_);}
	.st286{fill:url(#SVGID_287_);}
	.st287{fill:url(#SVGID_288_);}
	.st288{fill:url(#SVGID_289_);}
	.st289{fill:url(#SVGID_290_);}
	.st290{fill:url(#SVGID_291_);}
	.st291{fill:url(#SVGID_292_);}
	.st292{fill:url(#SVGID_293_);}
	.st293{fill:url(#SVGID_294_);}
	.st294{fill:url(#SVGID_295_);}
	.st295{fill:url(#SVGID_296_);}
	.st296{fill:url(#SVGID_297_);}
	.st297{fill:url(#SVGID_298_);}
	.st298{fill:url(#SVGID_299_);}
	.st299{fill:url(#SVGID_300_);}
	.st300{fill:url(#SVGID_301_);}
	.st301{fill:url(#SVGID_302_);}
	.st302{fill:url(#SVGID_303_);}
	.st303{fill:url(#SVGID_304_);}
	.st304{fill:url(#SVGID_305_);}
	.st305{fill:url(#SVGID_306_);}
	.st306{fill:url(#SVGID_307_);}
	.st307{fill:url(#SVGID_308_);}
	.st308{fill:url(#SVGID_309_);}
	.st309{fill:url(#SVGID_310_);}
	.st310{fill:url(#SVGID_311_);}
	.st311{fill:url(#SVGID_312_);}
	.st312{fill:url(#SVGID_313_);}
	.st313{fill:url(#SVGID_314_);}
	.st314{fill:url(#SVGID_315_);}
	.st315{fill:url(#SVGID_316_);}
	.st316{fill:url(#SVGID_317_);}
	.st317{fill:url(#SVGID_318_);}
	.st318{fill:url(#SVGID_319_);}
	.st319{fill:url(#SVGID_320_);}
	.st320{fill:url(#SVGID_321_);}
	.st321{fill:url(#SVGID_322_);}
	.st322{fill:url(#SVGID_323_);}
	.st323{fill:url(#SVGID_324_);}
	.st324{fill:url(#SVGID_325_);}
	.st325{fill:url(#SVGID_326_);}
	.st326{fill:url(#SVGID_327_);}
	.st327{fill:url(#SVGID_328_);}
	.st328{fill:url(#SVGID_329_);}
	.st329{fill:url(#SVGID_330_);}
	.st330{fill:url(#SVGID_331_);}
	.st331{clip-path:url(#SVGID_260_);fill:#FFFFFF;}
	.st332{fill:#3A3A3A;}
	.st333{clip-path:url(#SVGID_333_);}
	.st334{fill:url(#SVGID_334_);}
	.st335{fill:url(#SVGID_335_);}
	.st336{fill:url(#SVGID_336_);}
	.st337{fill:url(#SVGID_337_);}
	.st338{fill:url(#SVGID_338_);}
	.st339{fill:url(#SVGID_339_);}
	.st340{fill:url(#SVGID_340_);}
	.st341{fill:url(#SVGID_341_);}
	.st342{fill:url(#SVGID_342_);}
	.st343{fill:url(#SVGID_343_);}
	.st344{fill:url(#SVGID_344_);}
	.st345{fill:url(#SVGID_345_);}
	.st346{fill:url(#SVGID_346_);}
	.st347{fill:url(#SVGID_347_);}
	.st348{fill:url(#SVGID_348_);}
	.st349{fill:url(#SVGID_349_);}
	.st350{fill:url(#SVGID_350_);}
	.st351{fill:url(#SVGID_351_);}
	.st352{fill:url(#SVGID_352_);}
	.st353{fill:url(#SVGID_353_);}
	.st354{fill:url(#SVGID_354_);}
	.st355{fill:url(#SVGID_355_);}
	.st356{fill:url(#SVGID_356_);}
	.st357{fill:url(#SVGID_357_);}
	.st358{fill:url(#SVGID_358_);}
	.st359{fill:url(#SVGID_359_);}
	.st360{fill:url(#SVGID_360_);}
	.st361{fill:url(#SVGID_361_);}
	.st362{fill:url(#SVGID_362_);}
	.st363{fill:url(#SVGID_363_);}
	.st364{fill:url(#SVGID_364_);}
	.st365{fill:url(#SVGID_365_);}
	.st366{fill:url(#SVGID_366_);}
	.st367{fill:url(#SVGID_367_);}
	.st368{fill:url(#SVGID_368_);}
	.st369{fill:url(#SVGID_369_);}
	.st370{fill:url(#SVGID_370_);}
	.st371{fill:url(#SVGID_371_);}
	.st372{fill:url(#SVGID_372_);}
	.st373{fill:url(#SVGID_373_);}
	.st374{fill:url(#SVGID_374_);}
	.st375{fill:url(#SVGID_375_);}
	.st376{fill:url(#SVGID_376_);}
	.st377{fill:url(#SVGID_377_);}
	.st378{fill:url(#SVGID_378_);}
	.st379{fill:url(#SVGID_379_);}
	.st380{fill:url(#SVGID_380_);}
	.st381{fill:url(#SVGID_381_);}
	.st382{fill:url(#SVGID_382_);}
	.st383{fill:url(#SVGID_383_);}
	.st384{fill:url(#SVGID_384_);}
	.st385{fill:url(#SVGID_385_);}
	.st386{fill:url(#SVGID_386_);}
	.st387{fill:url(#SVGID_387_);}
	.st388{fill:url(#SVGID_388_);}
	.st389{fill:url(#SVGID_389_);}
	.st390{fill:url(#SVGID_390_);}
	.st391{fill:url(#SVGID_391_);}
	.st392{fill:url(#SVGID_392_);}
	.st393{fill:url(#SVGID_393_);}
	.st394{fill:url(#SVGID_394_);}
	.st395{fill:url(#SVGID_395_);}
	.st396{fill:url(#SVGID_396_);}
	.st397{fill:url(#SVGID_397_);}
	.st398{fill:url(#SVGID_398_);}
	.st399{fill:url(#SVGID_399_);}
	.st400{fill:url(#SVGID_400_);}
	.st401{fill:url(#SVGID_401_);}
	.st402{fill:url(#SVGID_402_);}
	.st403{fill:url(#SVGID_403_);}
	.st404{fill:url(#SVGID_404_);}
	.st405{clip-path:url(#SVGID_333_);fill:#FFFFFF;}
	.st406{fill:#878787;}
	.st407{fill:none;}
	.st408{clip-path:url(#SVGID_406_);}
	.st409{fill:url(#SVGID_407_);}
	.st410{fill:url(#SVGID_408_);}
	.st411{fill:url(#SVGID_409_);}
	.st412{fill:url(#SVGID_410_);}
	.st413{fill:url(#SVGID_411_);}
	.st414{fill:url(#SVGID_412_);}
	.st415{fill:url(#SVGID_413_);}
	.st416{fill:url(#SVGID_414_);}
	.st417{fill:url(#SVGID_415_);}
	.st418{fill:url(#SVGID_416_);}
	.st419{fill:url(#SVGID_417_);}
	.st420{fill:url(#SVGID_418_);}
	.st421{fill:url(#SVGID_419_);}
	.st422{fill:url(#SVGID_420_);}
	.st423{fill:url(#SVGID_421_);}
	.st424{fill:url(#SVGID_422_);}
	.st425{fill:url(#SVGID_423_);}
	.st426{fill:url(#SVGID_424_);}
	.st427{fill:url(#SVGID_425_);}
	.st428{fill:url(#SVGID_426_);}
	.st429{fill:url(#SVGID_427_);}
	.st430{fill:url(#SVGID_428_);}
	.st431{fill:url(#SVGID_429_);}
	.st432{fill:url(#SVGID_430_);}
	.st433{fill:url(#SVGID_431_);}
	.st434{fill:url(#SVGID_432_);}
	.st435{fill:url(#SVGID_433_);}
	.st436{fill:url(#SVGID_434_);}
	.st437{fill:url(#SVGID_435_);}
	.st438{fill:url(#SVGID_436_);}
	.st439{fill:url(#SVGID_437_);}
	.st440{fill:url(#SVGID_438_);}
	.st441{fill:url(#SVGID_439_);}
	.st442{fill:url(#SVGID_440_);}
	.st443{fill:url(#SVGID_441_);}
	.st444{fill:url(#SVGID_442_);}
	.st445{fill:url(#SVGID_443_);}
	.st446{fill:url(#SVGID_444_);}
	.st447{fill:url(#SVGID_445_);}
	.st448{fill:url(#SVGID_446_);}
	.st449{fill:url(#SVGID_447_);}
	.st450{fill:url(#SVGID_448_);}
	.st451{fill:url(#SVGID_449_);}
	.st452{fill:url(#SVGID_450_);}
	.st453{fill:url(#SVGID_451_);}
	.st454{fill:url(#SVGID_452_);}
	.st455{fill:url(#SVGID_453_);}
	.st456{fill:url(#SVGID_454_);}
	.st457{fill:url(#SVGID_455_);}
	.st458{fill:url(#SVGID_456_);}
	.st459{fill:url(#SVGID_457_);}
	.st460{fill:url(#SVGID_458_);}
	.st461{fill:url(#SVGID_459_);}
	.st462{fill:url(#SVGID_460_);}
	.st463{fill:url(#SVGID_461_);}
	.st464{fill:url(#SVGID_462_);}
	.st465{fill:url(#SVGID_463_);}
	.st466{fill:url(#SVGID_464_);}
	.st467{fill:url(#SVGID_465_);}
	.st468{fill:url(#SVGID_466_);}
	.st469{fill:url(#SVGID_467_);}
	.st470{fill:url(#SVGID_468_);}
	.st471{fill:url(#SVGID_469_);}
	.st472{fill:url(#SVGID_470_);}
	.st473{fill:url(#SVGID_471_);}
	.st474{fill:url(#SVGID_472_);}
	.st475{fill:url(#SVGID_473_);}
	.st476{fill:url(#SVGID_474_);}
	.st477{fill:url(#SVGID_475_);}
	.st478{fill:url(#SVGID_476_);}
	.st479{fill:url(#SVGID_477_);}
	.st480{clip-path:url(#SVGID_406_);fill:#FFFFFF;}
	.st481{fill:#013346;}
	.st482{fill:url(#SVGID_478_);}
	.st483{fill:url(#SVGID_479_);}
	.st484{fill:#409A3C;}
	.st485{fill:url(#SVGID_480_);}
</style>
<g id="Artwork">
</g>
<g id="Cleversafe_copy">
	<g>
		<path class="st481" d="M39.2,1.1h9.7v44.2h-9.7V1.1z"/>
		<path class="st481" d="M57.5,1.1h20.8c8.4,0,14.1,2.7,14.1,11c0,4.3-2.2,7.4-6,9.2c5.4,1.5,8.1,5.7,8.1,11.2
			c0,9-7.6,12.8-15.6,12.8H57.5V1.1z M67.2,19H77c3.4,0,5.9-1.5,5.9-5.3c0-4.2-3.2-5.1-6.7-5.1h-9.1V19z M67.2,37.8h10.4
			c3.8,0,7.2-1.2,7.2-5.8c0-4.5-2.8-6.3-7-6.3H67.2V37.8z"/>
		<path class="st481" d="M101.1,1.1h13.7l10.3,30.4h0.1L135,1.1h13.7v44.2h-9.1V14h-0.1l-10.8,31.4h-7.5l-10.8-31h-0.1v31h-9.1V1.1z
			"/>
		<path class="st481" d="M204,16c-0.6-4.4-4.8-7.7-9.7-7.7c-8.7,0-12,7.4-12,15.2c0,7.4,3.3,14.8,12,14.8c5.9,0,9.3-4.1,10-9.9h9.4
			c-1,11-8.6,18.1-19.5,18.1c-13.7,0-21.8-10.2-21.8-23c0-13.1,8.1-23.4,21.8-23.4c9.7,0,17.9,5.7,19.1,15.9H204z"/>
		<path class="st481" d="M219.7,1.1h8.8v44.2h-8.8V1.1z"/>
		<path class="st481" d="M251,12.4c10.1,0,16.6,6.7,16.6,16.9c0,10.2-6.5,16.9-16.6,16.9c-10,0-16.5-6.7-16.5-16.9
			C234.5,19.1,241,12.4,251,12.4z M251,39.6c6,0,7.8-5.1,7.8-10.2c0-5.1-1.8-10.3-7.8-10.3c-5.9,0-7.7,5.1-7.7,10.3
			C243.3,34.4,245.1,39.6,251,39.6z"/>
		<path class="st481" d="M303.4,45.3H295v-4.5h-0.2c-2.2,3.6-6.1,5.3-9.8,5.3c-9.4,0-11.7-5.3-11.7-13.2V13.3h8.8v18.1
			c0,5.3,1.5,7.9,5.6,7.9c4.8,0,6.8-2.7,6.8-9.2V13.3h8.8V45.3z"/>
		<path class="st481" d="M332.9,41.2h-0.1c-2,3.5-5.6,5-9.7,5c-9.7,0-14.4-8.3-14.4-17.2c0-8.6,4.8-16.6,14.2-16.6
			c3.8,0,7.5,1.6,9.5,4.8h0.1V1.1h8.8v44.2h-8.4V41.2z M325.2,19.1c-5.8,0-7.7,5-7.7,10.2c0,5,2.3,10.3,7.7,10.3
			c5.8,0,7.6-5.1,7.6-10.3C332.8,24,330.9,19.1,325.2,19.1z"/>
	</g>
	<g>
		<path class="st481" d="M37.7,67.4c0.7-2.1,1.7-3.9,3-5.5c1.3-1.6,3-2.9,4.9-3.8c2-1,4.3-1.4,6.9-1.4c2.6,0,4.9,0.5,6.9,1.4
			c2,1,3.6,2.2,4.9,3.8c1.3,1.6,2.3,3.4,3,5.5c0.7,2.1,1,4.2,1,6.5c0,2.2-0.3,4.4-1,6.5c-0.7,2.1-1.7,3.9-3,5.5
			c-1.3,1.6-3,2.9-4.9,3.8c-2,0.9-4.3,1.4-6.9,1.4c-2.6,0-4.9-0.5-6.9-1.4c-2-0.9-3.6-2.2-4.9-3.8c-1.3-1.6-2.3-3.4-3-5.5
			c-0.7-2.1-1-4.2-1-6.5C36.7,71.6,37,69.4,37.7,67.4z M41.7,78.8c0.4,1.6,1.1,3.1,2,4.4c0.9,1.3,2.1,2.3,3.6,3.1
			c1.4,0.8,3.2,1.2,5.2,1.2c2,0,3.7-0.4,5.2-1.2c1.4-0.8,2.6-1.8,3.6-3.1c0.9-1.3,1.6-2.7,2-4.4c0.4-1.6,0.6-3.3,0.6-4.9
			c0-1.7-0.2-3.3-0.6-4.9c-0.4-1.6-1.1-3.1-2-4.4c-0.9-1.3-2.1-2.3-3.6-3.1c-1.4-0.8-3.2-1.2-5.2-1.2c-2,0-3.7,0.4-5.2,1.2
			c-1.4,0.8-2.6,1.8-3.6,3.1c-0.9,1.3-1.6,2.7-2,4.4c-0.4,1.6-0.6,3.3-0.6,4.9C41,75.5,41.3,77.2,41.7,78.8z"/>
		<path class="st481" d="M77,57.4v12.3h0.1c0.6-1.3,1.7-2.3,3-2.9c1.4-0.6,2.9-0.9,4.6-0.9c1.8,0,3.5,0.3,4.8,1
			c1.4,0.7,2.5,1.6,3.4,2.7c0.9,1.2,1.6,2.5,2.1,4c0.5,1.5,0.7,3.1,0.7,4.8c0,1.7-0.2,3.3-0.7,4.8c-0.4,1.5-1.1,2.8-2,3.9
			c-0.9,1.1-2,2-3.4,2.7c-1.4,0.6-3,1-4.8,1c-0.6,0-1.2-0.1-2-0.2c-0.7-0.1-1.4-0.3-2.1-0.6c-0.7-0.3-1.4-0.7-2-1.1
			c-0.6-0.5-1.2-1.1-1.6-1.8H77v3.2h-3.9V57.4H77z M91.1,74.9c-0.3-1.1-0.7-2-1.3-2.8c-0.6-0.8-1.4-1.5-2.3-2
			c-0.9-0.5-2-0.7-3.3-0.7c-1.3,0-2.4,0.3-3.4,0.8c-0.9,0.5-1.7,1.2-2.3,2.1c-0.6,0.8-1,1.8-1.3,2.9c-0.3,1.1-0.4,2.2-0.4,3.3
			c0,1.2,0.1,2.3,0.4,3.4c0.3,1.1,0.7,2.1,1.3,2.9c0.6,0.8,1.4,1.5,2.3,2c1,0.5,2.1,0.8,3.5,0.8c1.4,0,2.5-0.3,3.4-0.8
			c0.9-0.5,1.6-1.2,2.2-2.1c0.6-0.9,1-1.8,1.2-3c0.2-1.1,0.4-2.2,0.4-3.4C91.5,77.1,91.4,76,91.1,74.9z"/>
		<path class="st481" d="M102.9,98c-1,1-2.4,1.5-4.2,1.5c-0.7,0-1.4-0.1-2-0.2v-3.4c0.2,0,0.3,0.1,0.4,0.1c0.1,0,0.2,0,0.3,0h0.8
			c0.9,0,1.4-0.2,1.8-0.7c0.3-0.5,0.5-1.3,0.5-2.6V66.5h3.9v26.9C104.4,95.4,103.9,97,102.9,98z M100.5,62.2v-4.8h3.9v4.8H100.5z"/>
		<path class="st481" d="M127.4,88.8c-1.8,1.4-4,2-6.7,2c-1.9,0-3.6-0.3-5-0.9c-1.4-0.6-2.6-1.5-3.5-2.6c-1-1.1-1.7-2.4-2.1-4
			c-0.5-1.5-0.7-3.2-0.8-5c0-1.8,0.3-3.5,0.8-5c0.6-1.5,1.3-2.8,2.3-3.9c1-1.1,2.2-2,3.6-2.6c1.4-0.6,2.9-0.9,4.5-0.9
			c2.1,0,3.9,0.4,5.3,1.3c1.4,0.9,2.5,2,3.4,3.3c0.8,1.4,1.4,2.8,1.8,4.4c0.3,1.6,0.5,3.1,0.4,4.6h-17.9c0,1,0.1,2,0.4,3
			c0.3,0.9,0.7,1.8,1.3,2.5c0.6,0.7,1.4,1.3,2.4,1.7c1,0.4,2.1,0.6,3.4,0.6c1.7,0,3-0.4,4.1-1.2c1.1-0.8,1.8-1.9,2.1-3.5h3.9
			C130.4,85.4,129.2,87.4,127.4,88.8z M126.5,73.5c-0.4-0.8-0.8-1.5-1.4-2.1c-0.6-0.6-1.3-1.1-2.1-1.4c-0.8-0.4-1.7-0.5-2.7-0.5
			c-1,0-1.9,0.2-2.7,0.5c-0.8,0.4-1.5,0.8-2.1,1.5c-0.6,0.6-1,1.3-1.4,2.1c-0.3,0.8-0.5,1.7-0.6,2.6h13.7
			C127,75.2,126.8,74.3,126.5,73.5z"/>
		<path class="st481" d="M149.6,70.6c-1-0.8-2.3-1.2-4-1.2c-1.4,0-2.6,0.3-3.6,0.8c-1,0.5-1.7,1.2-2.3,2.1c-0.6,0.9-1,1.9-1.2,3
			c-0.2,1.1-0.4,2.3-0.4,3.5c0,1.1,0.1,2.2,0.4,3.2c0.3,1,0.7,2,1.2,2.8c0.6,0.8,1.3,1.5,2.2,2c0.9,0.5,2,0.7,3.2,0.7
			c1.9,0,3.5-0.5,4.5-1.5c1.1-1,1.8-2.4,2-4.3h4c-0.4,3-1.5,5.2-3.3,6.8c-1.8,1.6-4.2,2.4-7.2,2.4c-1.8,0-3.4-0.3-4.8-0.9
			c-1.4-0.6-2.6-1.4-3.5-2.5c-0.9-1.1-1.6-2.4-2.1-3.9c-0.5-1.5-0.7-3.1-0.7-4.9c0-1.8,0.2-3.5,0.7-5c0.5-1.6,1.2-2.9,2.1-4.1
			c0.9-1.2,2.1-2.1,3.5-2.7c1.4-0.7,3.1-1,4.9-1c1.4,0,2.6,0.2,3.8,0.5c1.2,0.3,2.2,0.8,3.1,1.5c0.9,0.7,1.7,1.5,2.2,2.6
			c0.6,1,1,2.3,1.1,3.7h-4.1C151.2,72.6,150.5,71.5,149.6,70.6z"/>
		<path class="st481" d="M170.3,66.5v3.5h-4.8v14.8c0,0.5,0,0.8,0.1,1.1c0.1,0.3,0.2,0.5,0.4,0.6c0.2,0.2,0.5,0.3,0.9,0.3
			c0.4,0,0.9,0.1,1.5,0.1h1.8v3.5h-3c-1,0-1.9-0.1-2.6-0.2c-0.7-0.1-1.3-0.4-1.8-0.8c-0.4-0.4-0.8-0.9-1-1.6
			c-0.2-0.7-0.3-1.6-0.3-2.7V69.9h-4.1v-3.5h4.1v-7.2h3.9v7.2H170.3z"/>
		<path class="st481" d="M204.2,61.9c-1.5-1.1-3.3-1.6-5.6-1.6c-0.9,0-1.8,0.1-2.7,0.3c-0.9,0.2-1.7,0.5-2.4,0.9
			c-0.7,0.4-1.2,1-1.7,1.7c-0.4,0.7-0.6,1.6-0.6,2.7c0,1,0.3,1.8,0.9,2.5c0.6,0.6,1.4,1.1,2.4,1.5c1,0.4,2.1,0.7,3.4,1
			c1.3,0.3,2.5,0.5,3.9,0.9c1.3,0.3,2.6,0.7,3.9,1.1c1.3,0.4,2.4,1,3.4,1.7c1,0.7,1.8,1.6,2.4,2.7c0.6,1.1,0.9,2.4,0.9,4.1
			c0,1.8-0.4,3.3-1.2,4.5c-0.8,1.2-1.8,2.3-3,3c-1.2,0.8-2.6,1.4-4.1,1.7c-1.5,0.4-3,0.5-4.5,0.5c-1.8,0-3.6-0.2-5.2-0.7
			c-1.6-0.5-3.1-1.2-4.3-2.1c-1.2-0.9-2.2-2.1-3-3.6c-0.7-1.5-1.1-3.2-1.1-5.2h4.2c0,1.4,0.3,2.6,0.8,3.6c0.5,1,1.2,1.8,2.1,2.5
			s1.9,1.1,3.1,1.4c1.2,0.3,2.4,0.5,3.6,0.5c1,0,2-0.1,3-0.3c1-0.2,1.9-0.5,2.7-0.9c0.8-0.4,1.4-1.1,1.9-1.8c0.5-0.8,0.7-1.8,0.7-3
			c0-1.1-0.3-2.1-0.9-2.8c-0.6-0.7-1.4-1.3-2.4-1.7c-1-0.4-2.1-0.8-3.4-1.1c-1.3-0.3-2.5-0.6-3.9-0.9c-1.3-0.3-2.6-0.6-3.9-1
			c-1.3-0.4-2.4-0.9-3.4-1.5c-1-0.6-1.8-1.4-2.4-2.4c-0.6-1-0.9-2.3-0.9-3.8c0-1.7,0.3-3.1,1-4.3c0.7-1.2,1.6-2.2,2.7-3
			c1.1-0.8,2.4-1.4,3.8-1.8c1.4-0.4,2.9-0.6,4.4-0.6c1.7,0,3.3,0.2,4.7,0.6c1.4,0.4,2.7,1,3.8,1.9c1.1,0.9,2,1.9,2.6,3.3
			c0.6,1.3,1,2.9,1,4.7h-4.2C206.5,64.7,205.7,62.9,204.2,61.9z"/>
		<path class="st481" d="M227.2,66.5v3.5h-4.8v14.8c0,0.5,0,0.8,0.1,1.1c0.1,0.3,0.2,0.5,0.4,0.6c0.2,0.2,0.5,0.3,0.9,0.3
			c0.4,0,0.9,0.1,1.5,0.1h1.8v3.5h-3c-1,0-1.9-0.1-2.6-0.2c-0.7-0.1-1.3-0.4-1.8-0.8c-0.4-0.4-0.8-0.9-1-1.6
			c-0.2-0.7-0.3-1.6-0.3-2.7V69.9h-4.1v-3.5h4.1v-7.2h3.9v7.2H227.2z"/>
		<path class="st481" d="M230.9,73.5c0.5-1.5,1.2-2.8,2.2-4c1-1.1,2.2-2,3.6-2.7c1.4-0.6,3.1-1,5-1c1.9,0,3.6,0.3,5,1
			c1.4,0.6,2.6,1.5,3.6,2.7c1,1.1,1.7,2.4,2.2,4c0.5,1.5,0.7,3.2,0.7,4.9s-0.2,3.4-0.7,4.9c-0.5,1.5-1.2,2.8-2.2,3.9
			c-1,1.1-2.2,2-3.6,2.6c-1.4,0.6-3.1,0.9-5,0.9c-1.9,0-3.5-0.3-5-0.9c-1.4-0.6-2.7-1.5-3.6-2.6c-1-1.1-1.7-2.4-2.2-3.9
			c-0.5-1.5-0.7-3.1-0.7-4.9S230.5,75,230.9,73.5z M234.9,82.3c0.4,1.1,0.9,2.1,1.6,2.8c0.7,0.8,1.5,1.3,2.4,1.7
			c0.9,0.4,1.9,0.6,2.9,0.6c1,0,2-0.2,2.9-0.6c0.9-0.4,1.7-1,2.4-1.7c0.7-0.8,1.2-1.7,1.6-2.8c0.4-1.1,0.6-2.4,0.6-3.9
			c0-1.4-0.2-2.7-0.6-3.9c-0.4-1.1-0.9-2.1-1.6-2.8c-0.7-0.8-1.5-1.4-2.4-1.8c-0.9-0.4-1.9-0.6-2.9-0.6c-1,0-2,0.2-2.9,0.6
			c-0.9,0.4-1.7,1-2.4,1.8c-0.7,0.8-1.2,1.7-1.6,2.8c-0.4,1.1-0.6,2.4-0.6,3.9C234.4,79.9,234.6,81.2,234.9,82.3z"/>
		<path class="st481" d="M261.5,66.5v5h0.1c1-1.9,2.1-3.4,3.5-4.3c1.4-0.9,3.1-1.4,5.3-1.3v4.2c-1.6,0-2.9,0.2-4,0.6
			c-1.1,0.4-2,1.1-2.7,1.9c-0.7,0.8-1.2,1.8-1.5,3c-0.3,1.2-0.5,2.5-0.5,4.1v10.6h-3.9V66.5H261.5z"/>
		<path class="st481" d="M294.5,90.2c-0.7,0.4-1.6,0.6-2.8,0.6c-1,0-1.8-0.3-2.4-0.9c-0.6-0.6-0.9-1.5-0.9-2.8
			c-1.1,1.3-2.3,2.2-3.8,2.8c-1.4,0.6-3,0.9-4.6,0.9c-1.1,0-2.1-0.1-3.1-0.4s-1.8-0.6-2.5-1.2c-0.7-0.5-1.3-1.2-1.7-2.1
			c-0.4-0.8-0.6-1.9-0.6-3.1c0-1.4,0.2-2.5,0.7-3.3c0.5-0.9,1.1-1.6,1.8-2.1c0.8-0.5,1.6-0.9,2.6-1.2c1-0.3,2-0.5,3-0.7
			c1.1-0.2,2.1-0.4,3.1-0.5c1-0.1,1.8-0.3,2.6-0.5c0.7-0.2,1.3-0.5,1.8-0.9c0.4-0.4,0.6-0.9,0.6-1.7c0-0.9-0.2-1.6-0.5-2.1
			c-0.3-0.5-0.7-0.9-1.2-1.2c-0.5-0.3-1.1-0.5-1.7-0.6c-0.6-0.1-1.3-0.1-1.9-0.1c-1.7,0-3,0.3-4.2,0.9c-1.1,0.6-1.7,1.8-1.8,3.6H273
			c0.1-1.5,0.4-2.7,0.9-3.7c0.6-1,1.3-1.8,2.2-2.5c0.9-0.6,2-1.1,3.2-1.4c1.2-0.3,2.5-0.4,3.8-0.4c1.1,0,2.1,0.1,3.2,0.2
			c1.1,0.2,2,0.5,2.9,0.9c0.9,0.5,1.6,1.1,2.1,2c0.5,0.9,0.8,2,0.8,3.4v12.2c0,0.9,0.1,1.6,0.2,2c0.1,0.4,0.5,0.6,1.1,0.6
			c0.3,0,0.7-0.1,1.2-0.2V90.2z M288.1,78c-0.5,0.4-1.1,0.6-1.9,0.8c-0.8,0.2-1.6,0.3-2.5,0.4c-0.9,0.1-1.8,0.2-2.7,0.4
			c-0.9,0.1-1.7,0.4-2.4,0.7c-0.7,0.3-1.3,0.7-1.7,1.3c-0.4,0.6-0.7,1.3-0.7,2.3c0,0.6,0.1,1.2,0.4,1.6c0.3,0.4,0.6,0.8,1,1.1
			c0.4,0.3,0.9,0.5,1.5,0.6c0.6,0.1,1.1,0.2,1.8,0.2c1.3,0,2.4-0.2,3.3-0.5c0.9-0.4,1.7-0.8,2.3-1.3c0.6-0.5,1-1.1,1.3-1.7
			c0.3-0.6,0.4-1.2,0.4-1.8V78z"/>
		<path class="st481" d="M316,97.1c-1.8,1.9-4.6,2.9-8.4,2.9c-1.1,0-2.2-0.1-3.4-0.4c-1.2-0.2-2.2-0.6-3.1-1.2
			c-0.9-0.6-1.7-1.3-2.3-2.2c-0.6-0.9-1-2-1-3.3h3.9c0,0.7,0.3,1.3,0.7,1.8c0.4,0.5,0.9,0.9,1.5,1.2c0.6,0.3,1.3,0.5,2,0.7
			c0.7,0.1,1.4,0.2,2,0.2c1.3,0,2.4-0.2,3.3-0.7c0.9-0.4,1.6-1.1,2.2-1.8c0.6-0.8,1-1.7,1.3-2.8c0.3-1.1,0.4-2.3,0.4-3.6v-1.6h-0.1
			c-0.7,1.5-1.7,2.6-3.1,3.3c-1.4,0.7-2.8,1-4.4,1c-1.8,0-3.3-0.3-4.7-1c-1.3-0.6-2.4-1.5-3.3-2.6c-0.9-1.1-1.6-2.4-2-3.8
			c-0.4-1.5-0.7-3-0.7-4.6c0-1.4,0.2-2.9,0.6-4.4c0.4-1.5,1-2.8,1.8-4.1c0.9-1.2,2-2.2,3.4-3c1.4-0.8,3.2-1.2,5.2-1.2
			c1.5,0,2.9,0.3,4.2,1c1.3,0.7,2.2,1.7,3,3h0v-3.4h3.7v21.8C318.7,92.2,317.8,95.1,316,97.1z M311,86.3c0.9-0.5,1.6-1.2,2.2-2.1
			c0.6-0.9,1-1.9,1.2-3c0.3-1.1,0.4-2.2,0.4-3.3c0-1-0.1-2.1-0.4-3.1c-0.2-1-0.6-1.9-1.2-2.7c-0.5-0.8-1.2-1.5-2.1-2
			c-0.9-0.5-1.9-0.7-3.1-0.7c-1.3,0-2.3,0.2-3.2,0.7c-0.9,0.5-1.6,1.1-2.2,1.9c-0.6,0.8-1,1.7-1.2,2.8c-0.3,1-0.4,2.1-0.4,3.3
			c0,1.1,0.1,2.2,0.3,3.2c0.2,1.1,0.6,2.1,1.1,2.9c0.5,0.9,1.2,1.6,2.1,2.1c0.9,0.5,1.9,0.8,3.2,0.8C309,87.1,310.1,86.9,311,86.3z"
			/>
		<path class="st481" d="M341.5,88.8c-1.8,1.4-4,2-6.7,2c-1.9,0-3.6-0.3-5-0.9c-1.4-0.6-2.6-1.5-3.5-2.6c-1-1.1-1.7-2.4-2.1-4
			c-0.5-1.5-0.7-3.2-0.8-5c0-1.8,0.3-3.5,0.8-5c0.6-1.5,1.3-2.8,2.3-3.9c1-1.1,2.2-2,3.6-2.6c1.4-0.6,2.9-0.9,4.5-0.9
			c2.1,0,3.9,0.4,5.3,1.3c1.4,0.9,2.5,2,3.4,3.3c0.8,1.4,1.4,2.8,1.8,4.4c0.3,1.6,0.5,3.1,0.4,4.6h-17.9c0,1,0.1,2,0.4,3
			c0.3,0.9,0.7,1.8,1.3,2.5c0.6,0.7,1.4,1.3,2.4,1.7c1,0.4,2.1,0.6,3.4,0.6c1.7,0,3-0.4,4.1-1.2c1.1-0.8,1.8-1.9,2.1-3.5h3.9
			C344.4,85.4,343.3,87.4,341.5,88.8z M340.5,73.5c-0.4-0.8-0.8-1.5-1.4-2.1c-0.6-0.6-1.3-1.1-2.1-1.4c-0.8-0.4-1.7-0.5-2.7-0.5
			c-1,0-1.9,0.2-2.7,0.5c-0.8,0.4-1.5,0.8-2.1,1.5c-0.6,0.6-1,1.3-1.4,2.1c-0.3,0.8-0.5,1.7-0.6,2.6h13.7
			C341.1,75.2,340.9,74.3,340.5,73.5z"/>
	</g>
</g>
</svg>
